<svg id="Layer_1" data-name="Layer 1" xmlns="http://www.w3.org/2000/svg" viewBox="0 0 90 90"><defs><style>.cls-1{fill:#c94b3b;}.cls-2{fill:#68a851;}.cls-3{fill:#607ff3;}.cls-4{fill:#e9be0a;}.cls-5{fill:#e1f2d9;}</style></defs><path class="cls-1" d="M75.19,12.87,64.83,23.22c-.45.45-.91.89-1.34,1.35-.24.26-.39.32-.69,0a23.06,23.06,0,0,0-7.11-4.52,24.32,24.32,0,0,0-10.5-1.7A25.34,25.34,0,0,0,26.43,28a25.57,25.57,0,0,0-4.54,8.1,2.9,2.9,0,0,1-.19.34l-1-.83q-3.45-2.69-6.89-5.34c-1.36-1-2.74-2.08-4.09-3.14a29.94,29.94,0,0,1-2.48-2,42.24,42.24,0,0,1,5.08-7.86A43.68,43.68,0,0,1,25.43,6.3a43.1,43.1,0,0,1,15-4.91,45.17,45.17,0,0,1,13.83.31A42,42,0,0,1,75.23,12C75.65,12.41,75.47,12.59,75.19,12.87Z"/><path class="cls-2" d="M75.17,78.05c-.12.1-.22.22-.34.32L73,80a40.15,40.15,0,0,1-8.51,5A44.24,44.24,0,0,1,54.12,88a48.24,48.24,0,0,1-10.18.54A43.86,43.86,0,0,1,26.6,83.89c-1.82-.91-3.53-2-5.26-3.07a.7.7,0,0,0-.33-.37c-1.23-.87-2.41-1.82-3.56-2.8a18.71,18.71,0,0,0-2-1.78A58.12,58.12,0,0,1,11,70.66,42.14,42.14,0,0,1,7.24,64.5c0-.11.09-.15.17-.21,1.08-.81,2.18-1.59,3.21-2.45,1.43-1.22,3-2.31,4.44-3.49S18.21,56,19.67,54.7a6.93,6.93,0,0,1,1.17-.93,1.17,1.17,0,0,0,.65-1.27c.35.91.68,1.83,1.07,2.72A26.32,26.32,0,0,0,35,68.51a25.56,25.56,0,0,0,14.59,2.54,25.76,25.76,0,0,0,10.71-3.47,4.53,4.53,0,0,1,1-.6A5.75,5.75,0,0,0,62.7,68.2c.82.68,1.73,1.27,2.56,2s1.67,1.27,2.48,1.95c1.18,1,2.46,1.86,3.65,2.83a18.19,18.19,0,0,1,1.7,1.48A21.15,21.15,0,0,0,75.17,78.05Z"/><path class="cls-3" d="M88.25,47.8a49,49,0,0,1-2.17,12.92,39.94,39.94,0,0,1-8.32,14.79c-.7.78-1.44,1.5-2.17,2.25-.06,0-.09,0-.08.07l0,0a.26.26,0,0,0-.09.09s0,0-.05.06l-.18,0a21.15,21.15,0,0,1-2.08-1.64,18.19,18.19,0,0,0-1.7-1.48c-1.19-1-2.47-1.83-3.65-2.83-.81-.68-1.67-1.28-2.48-1.95s-1.74-1.27-2.56-2A5.75,5.75,0,0,1,61.36,67a29.11,29.11,0,0,0,3.58-3.16,20.55,20.55,0,0,0,5-9.73c.1-.51,0-.63-.54-.62H47c-.75,0-.75,0-.69-.79a5.72,5.72,0,0,0,0-.58c0-4.94,0-9.88,0-14.83,0-.56.18-.69.72-.69H86.65c.81,0,.81,0,.95.82A51,51,0,0,1,88.25,47.8Z"/><path class="cls-4" d="M21.38,51.88c.05.21.08.41.11.62a1.17,1.17,0,0,1-.65,1.27,6.93,6.93,0,0,0-1.17.93c-1.46,1.31-3.08,2.43-4.61,3.65s-3,2.27-4.44,3.49c-1,.86-2.13,1.64-3.21,2.45-.08.06-.15.1-.17.21a43.46,43.46,0,0,1-2.9-7.31A48,48,0,0,1,2.7,48.53a38.85,38.85,0,0,1-.1-6.38,45.61,45.61,0,0,1,.77-5.8A44.69,44.69,0,0,1,5.51,29a29.81,29.81,0,0,1,1.73-3.88,29.94,29.94,0,0,0,2.48,2c1.35,1.06,2.73,2.09,4.09,3.14q3.45,2.65,6.89,5.34l1,.83c-.19.76-.37,1.52-.56,2.27a20.91,20.91,0,0,0-.58,3.14,25.57,25.57,0,0,0,0,5.8A28.12,28.12,0,0,0,21.38,51.88Z"/><path class="cls-5" d="M21.34,80.82c-.36.23-.63.08-.85-.22a3.27,3.27,0,0,0-1.2-1,3.94,3.94,0,0,1-.71-.63c-.54-.46-1.1-.88-1.63-1.36a5.11,5.11,0,0,1-1.5-1.73,18.71,18.71,0,0,1,2,1.78c1.15,1,2.33,1.93,3.56,2.8A.7.7,0,0,1,21.34,80.82Z"/><path class="cls-5" d="M75.35,78a1.68,1.68,0,0,1-.8.93c-.54.35-.9,1-1.6,1.09l1.88-1.66c.12-.1.22-.22.34-.32Z"/><path class="cls-5" d="M75.59,77.76l-.08.07S75.53,77.74,75.59,77.76Z"/><path class="cls-5" d="M75.39,78l.09-.09Z"/></svg>